<svg xmlns="http://www.w3.org/2000/svg" version="1.1" xmlns:xlink="http://www.w3.org/1999/xlink" xmlns:svgjs="http://svgjs.dev/svgjs" width="1500" height="397" viewBox="0 0 1500 397"><g transform="matrix(1,0,0,1,-0.9090909090909918,-0.7863060444297503)"><svg viewBox="0 0 396 105" data-background-color="#ffffff" preserveAspectRatio="xMidYMid meet" height="397" width="1500" xmlns="http://www.w3.org/2000/svg" xmlns:xlink="http://www.w3.org/1999/xlink"><g id="tight-bounds" transform="matrix(1,0,0,1,0.2400000000000091,0.20796507472323356)"><svg viewBox="0 0 395.52 104.58406985055355" height="104.58406985055355" width="395.52"><g><svg viewBox="0 0 552.0919722348356 145.9850965517241" height="104.58406985055355" width="395.52"><g transform="matrix(1,0,0,1,156.57197223483558,45.111513793103434)"><svg viewBox="0 0 395.52 55.76206896551723" height="55.76206896551723" width="395.52"><g id="textblocktransform"><svg viewBox="0 0 395.52 55.76206896551723" height="55.76206896551723" width="395.52" id="textblock"><g><svg viewBox="0 0 395.52 55.76206896551723" height="55.76206896551723" width="395.52"><g transform="matrix(1,0,0,1,0,0)"><svg width="395.52" viewBox="1.5 -38.7 278.37 39.25" height="55.76206896551723" data-palette-color="#50a060"><path d="M16.05 0.55L16.05 0.55Q9.5 0.55 5.5-3.85 1.5-8.25 1.5-15.5L1.5-15.5Q1.5-23.75 6.5-29.4 11.5-35.05 18.8-35.05L18.8-35.05Q21.7-35.05 24.18-34.52 26.65-34 27.7-33.45L27.7-33.45 28.7-32.9 25.8-25.95Q24.3-26.95 21.75-27.83 19.2-28.7 17.25-28.7L17.25-28.7Q13.2-28.7 10.75-25.85 8.3-23 8.3-18.3L8.3-18.3Q8.3-11.95 10.63-8.4 12.95-4.85 17.1-4.85L17.1-4.85Q19.8-4.85 22.2-5.6L22.2-5.6 22.2-13.35 15.75-13.35 16.25-18.4 28.25-18.4 27.8-10.25 28.15-1.6Q20.8 0.55 16.05 0.55ZM49.2-12.65Q49.2-16.1 48.6-17.25 48-18.4 45.8-18.4 43.6-18.4 40.8-16.65L40.8-16.65 40.8-13 41.35-1.25 34.65 0 35.25-12.15Q35.05-18.85 34.15-24.15L34.15-24.15 40.2-25.45Q40.55-22.55 40.7-19.8L40.7-19.8Q41.45-20.8 42.4-21.78 43.35-22.75 45.4-23.98 47.45-25.2 49.55-25.2 51.65-25.2 53.1-23.85 54.55-22.5 54.95-20.15L54.95-20.15Q59.1-25.2 63.35-25.2L63.35-25.2Q66-25.2 67.55-23.43 69.1-21.65 69.1-18.6L69.1-18.6 68.8-13 69.35-1 62.6 0.25 63.2-12.65Q63.2-16.1 62.6-17.25 62-18.4 59.85-18.4 57.7-18.4 55-16.75L55-16.75 54.8-13 55.35-1 48.6 0.25 49.2-12.65ZM79.85 0Q76.9 0 75.02-1.88 73.15-3.75 73.15-6.93 73.15-10.1 76.05-12.43 78.95-14.75 83.1-14.75L83.1-14.75 86.5-14.75 86.5-15.6Q86.5-18.05 85.5-18.95 84.5-19.85 81.75-19.85L81.75-19.85Q80.6-19.85 79.02-19.38 77.45-18.9 75.5-17.9L75.5-17.9 74.05-21.85Q76.2-23.35 79.27-24.55 82.35-25.75 84.35-25.75L84.35-25.75Q92.2-25.75 92.2-18.15L92.2-18.15 92.2-8.35Q92.2-5.55 93.95-2.1L93.95-2.1 88.65 0.15Q87.4-2.25 86.8-4.15L86.8-4.15Q84.05 0 79.85 0L79.85 0ZM81.95-5.1L81.95-5.1Q83.95-5.1 86.5-7.15L86.5-7.15 86.5-10.5Q83.85-11.1 82.2-11.1L82.2-11.1Q79.05-11.1 79.05-8.3L79.05-8.3Q79.05-6.85 79.85-5.98 80.65-5.1 81.95-5.1ZM98.29-24.2L104.99-25.45 104.39-13 104.94-1.25 98.24 0 98.84-12.15 98.29-24.2ZM97.94-32.77Q97.94-34.45 99.24-35.77 100.54-37.1 102.24-37.1 103.94-37.1 104.84-36.18 105.74-35.25 105.74-33.4 105.74-31.55 104.47-30.23 103.19-28.9 101.52-28.9 99.84-28.9 98.89-30 97.94-31.1 97.94-32.77ZM110.49-37.45L117.34-38.7 116.69-13 117.24-1.25 110.49 0 111.09-12.15 110.49-37.45ZM142.59 0.55L142.59 0.55Q137.04 0.55 133.24-4.1 129.44-8.75 129.44-15.5L129.44-15.5Q129.44-23.75 134.01-29.4 138.59-35.05 145.24-35.05L145.24-35.05Q147.84-35.05 150.06-34.52 152.29-34 153.24-33.45L153.24-33.45 154.14-32.9 150.74-25.95Q149.59-26.95 147.49-27.83 145.39-28.7 143.69-28.7L143.69-28.7Q140.24-28.7 138.16-25.85 136.09-23 136.09-17.73 136.09-12.45 138.24-9.08 140.39-5.7 144.09-5.7L144.09-5.7Q146.49-5.7 148.44-7.2 150.39-8.7 151.19-11.2L151.19-11.2 155.34-8.8Q153.69-4.4 150.29-1.93 146.89 0.55 142.59 0.55ZM158.38-37.45L165.23-38.7 164.58-13 165.13-1.25 158.38 0 158.98-12.15 158.38-37.45ZM180.03-5.1L180.03-5.1Q181.48-5.1 183.08-5.85 184.68-6.6 185.58-7.35L185.58-7.35 186.48-8.1 188.78-5.3Q188.28-4.45 187.23-3.35 186.18-2.25 185.11-1.48 184.03-0.7 182.26-0.08 180.48 0.55 178.58 0.55L178.58 0.55Q174.53 0.55 171.98-2.53 169.43-5.6 169.43-10.45L169.43-10.45Q169.43-16.55 172.98-21.15 176.53-25.75 181.28-25.75L181.28-25.75Q184.93-25.75 186.96-23.7 188.98-21.65 188.98-17.95L188.98-17.95Q188.98-15.75 188.23-12.95L188.23-12.95 187.23-11.9 174.73-10.75Q175.58-5.1 180.03-5.1ZM180.03-20.6L180.03-20.6Q177.83-20.6 176.33-18.82 174.83-17.05 174.58-14.3L174.58-14.3 183.08-15.35Q183.23-16.5 183.23-17.25L183.23-17.25Q183.23-20.6 180.03-20.6ZM198.33 0Q195.38 0 193.5-1.88 191.63-3.75 191.63-6.93 191.63-10.1 194.53-12.43 197.43-14.75 201.58-14.75L201.58-14.75 204.98-14.75 204.98-15.6Q204.98-18.05 203.98-18.95 202.98-19.85 200.23-19.85L200.23-19.85Q199.08-19.85 197.5-19.38 195.93-18.9 193.98-17.9L193.98-17.9 192.53-21.85Q194.68-23.35 197.75-24.55 200.83-25.75 202.83-25.75L202.83-25.75Q210.68-25.75 210.68-18.15L210.68-18.15 210.68-8.35Q210.68-5.55 212.43-2.1L212.43-2.1 207.13 0.15Q205.88-2.25 205.28-4.15L205.28-4.15Q202.53 0 198.33 0L198.33 0ZM200.43-5.1L200.43-5.1Q202.43-5.1 204.98-7.15L204.98-7.15 204.98-10.5Q202.33-11.1 200.68-11.1L200.68-11.1Q197.53-11.1 197.53-8.3L197.53-8.3Q197.53-6.85 198.33-5.98 199.13-5.1 200.43-5.1ZM231.28-12.65Q231.28-16.1 230.68-17.25 230.08-18.4 227.88-18.4 225.68-18.4 222.88-16.65L222.88-16.65 222.88-13 223.43-1.25 216.73 0 217.33-12.15Q217.13-18.85 216.23-24.15L216.23-24.15 222.28-25.45Q222.63-22.55 222.78-19.8L222.78-19.8Q223.53-20.8 224.48-21.78 225.43-22.75 227.48-23.98 229.53-25.2 231.8-25.2 234.08-25.2 235.63-23.43 237.18-21.65 237.18-18.6L237.18-18.6 236.88-13 237.43-1 230.68 0.25 231.28-12.65ZM251.92-5.1L251.92-5.1Q253.37-5.1 254.97-5.85 256.57-6.6 257.47-7.35L257.47-7.35 258.37-8.1 260.67-5.3Q260.17-4.45 259.12-3.35 258.07-2.25 257-1.48 255.92-0.7 254.15-0.08 252.37 0.55 250.47 0.55L250.47 0.55Q246.42 0.55 243.87-2.53 241.32-5.6 241.32-10.45L241.32-10.45Q241.32-16.55 244.87-21.15 248.42-25.75 253.17-25.75L253.17-25.75Q256.82-25.75 258.85-23.7 260.87-21.65 260.87-17.95L260.87-17.95Q260.87-15.75 260.12-12.95L260.12-12.95 259.12-11.9 246.62-10.75Q247.47-5.1 251.92-5.1ZM251.92-20.6L251.92-20.6Q249.72-20.6 248.22-18.82 246.72-17.05 246.47-14.3L246.47-14.3 254.97-15.35Q255.12-16.5 255.12-17.25L255.12-17.25Q255.12-20.6 251.92-20.6ZM264.67-24.15L264.67-24.15 270.72-25.45Q271.17-21.6 271.32-18.15L271.32-18.15Q275.87-25.2 279.87-25.2L279.87-25.2 279.32-17.4Q276.42-17.4 274.75-16.88 273.07-16.35 271.32-14.8L271.32-14.8 271.32-13 271.87-1.25 265.17 0 265.77-12.15Q265.57-18.85 264.67-24.15Z" opacity="1" transform="matrix(1,0,0,1,0,0)" fill="#50a060" class="wordmark-text-0" data-fill-palette-color="primary" id="text-0"></path></svg></g></svg></g></svg></g></svg></g><g><svg viewBox="0 0 143.40788604173213 145.9850965517241" height="145.9850965517241" width="143.40788604173213"><g><svg xmlns="http://www.w3.org/2000/svg" xmlns:xlink="http://www.w3.org/1999/xlink" version="1.1" x="0" y="0" viewBox="10.378935980674058 8.592 79.24192817411088 80.666" enable-background="new 0 0 100 100" xml:space="preserve" height="145.9850965517241" width="143.40788604173213" class="icon-icon-0" data-fill-palette-color="accent" id="icon-0"><path d="M57.824 31.628C57.772 31.608 57.716 31.605 57.663 31.588 57.892 30.47 58.3 28.075 58.293 25.273A0.75 0.75 0 0 0 58.717 24.462L57.637 18.3A8.73 8.73 0 0 0 54.907 13.334C52.646 11.299 48.76 8.824 43.01 8.592 37.32 8.824 33.433 11.3 31.175 13.334A8.74 8.74 0 0 0 28.444 18.3L27.364 24.462A0.75 0.75 0 0 0 27.789 25.272C27.813 28.155 28.255 30.581 28.466 31.577 28.397 31.597 28.326 31.601 28.258 31.627 27.52 31.916 26.984 32.61 26.787 33.537 26.612 34.361 26.709 35.313 27.062 36.218 27.708 37.876 29.014 38.935 30.268 38.935 30.402 38.935 30.536 38.923 30.668 38.898 31.73 42.285 33.506 45.101 36.438 46.828V50.3H34.916V61.159H51.165V50.299H49.642V46.85C52.58 45.124 54.356 42.3 55.419 38.9 55.55 38.924 55.681 38.935 55.813 38.935 57.067 38.935 58.373 37.875 59.02 36.218 59.802 34.21 59.277 32.194 57.824 31.628M29.888 18.748L29.921 18.557A7.23 7.23 0 0 1 32.178 14.448 17 17 0 0 1 35.501 12.125 16.9 16.9 0 0 1 41.014 10.288C41.652 10.191 42.314 10.12 43.01 10.091 43.41 10.108 43.783 10.157 44.165 10.196 47.737 10.565 50.462 11.872 52.398 13.254 52.55 13.361 52.701 13.466 52.843 13.58 53.227 13.872 53.588 14.165 53.903 14.45 54.845 15.296 55.53 16.406 55.917 17.63 56.013 17.935 56.105 18.241 56.16 18.558L56.194 18.75 56.857 22.539C56.628 22.411 56.401 22.279 56.17 22.157L56.126 22.133C55.86 21.995 55.592 21.87 55.323 21.74A28.3 28.3 0 0 0 44.547 19.004 29 29 0 0 0 42.928 18.958C41.484 18.964 40.042 19.088 38.614 19.31 38.14 19.383 37.667 19.46 37.197 19.557A28 28 0 0 0 30.757 21.738C30.49 21.868 30.22 21.994 29.956 22.132 29.925 22.147 29.897 22.165 29.868 22.18 29.65 22.294 29.438 22.418 29.224 22.538zM28.46 35.672C28.216 35.047 28.141 34.382 28.254 33.847 28.307 33.6 28.448 33.163 28.802 33.025A0.6 0.6 0 0 1 29.029 32.985C29.175 32.985 29.337 33.03 29.504 33.112 29.676 34.606 29.92 36.056 30.26 37.432 29.687 37.422 28.882 36.759 28.46 35.673M50.502 51.8C49.011 53.368 46.232 54.425 43.04 54.425S37.07 53.368 35.58 51.8H37.189A0.75 0.75 0 0 0 37.939 51.05V47.578C39.4 48.178 41.099 48.554 43.079 48.654 45.025 48.555 46.698 48.185 48.141 47.595V51.05C48.142 51.464 48.478 51.8 48.892 51.8zM55.107 32.319C55.057 32.779 55.007 33.239 54.947 33.682A33 33 0 0 1 54.347 36.887C54.256 37.267 54.152 37.631 54.047 37.993 53.127 41.143 51.679 43.598 49.443 45.167 47.783 46.332 45.699 47.022 43.078 47.157 40.428 47.021 38.324 46.325 36.651 45.151 34.41 43.582 32.958 41.132 32.038 37.988 31.932 37.626 31.828 37.26 31.736 36.88A33 33 0 0 1 31.136 33.685 45 45 0 0 1 30.976 32.319 58 58 0 0 1 30.716 29.13C30.927 29.201 31.15 29.25 31.39 29.25A2.7 2.7 0 0 0 32.432 29.027C38.238 26.495 44.778 26.15 50.792 27.981A15.7 15.7 0 0 0 54.53 30.79L55.176 31.68C55.156 31.896 55.129 32.104 55.106 32.318M54.934 27.703C54.87 27.747 54.582 27.796 54.247 27.653A28 28 0 0 0 52.472 26.957 28 28 0 0 0 49.108 25.991 28 28 0 0 0 43.788 25.34H42.288A28 28 0 0 0 31.834 27.652C31.495 27.798 31.21 27.748 31.171 27.734L29.105 24.512 29.044 24.417A0.8 0.8 0 0 1 29.256 24.235C29.41 24.142 29.57 24.063 29.726 23.974L29.863 23.899C29.896 23.879 29.93 23.86 29.965 23.842 30.082 23.776 30.2 23.709 30.318 23.645 30.423 23.59 30.525 23.527 30.631 23.472A25 25 0 0 1 32.209 22.716C32.319 22.668 32.425 22.613 32.535 22.566 32.882 22.42 33.237 22.294 33.589 22.162A27 27 0 0 1 35.693 21.467 28 28 0 0 1 37.315 21.068C37.41 21.048 37.501 21.022 37.595 21.002 37.972 20.926 38.352 20.87 38.73 20.808A27 27 0 0 1 41.9 20.49C42.311 20.473 42.723 20.454 43.136 20.456 43.26 20.456 43.385 20.466 43.509 20.468 43.835 20.473 44.16 20.483 44.486 20.5A27 27 0 0 1 47.158 20.777C47.287 20.797 47.416 20.82 47.545 20.842 47.903 20.902 48.26 20.96 48.615 21.034A26.5 26.5 0 0 1 55.45 23.473C55.674 23.59 55.893 23.718 56.114 23.842L56.22 23.9 56.34 23.967C56.503 24.06 56.67 24.142 56.83 24.24A0.8 0.8 0 0 1 57.037 24.414zM57.62 35.673C57.2 36.756 56.398 37.414 55.826 37.43 56.164 36.056 56.406 34.61 56.577 33.117 56.837 32.99 57.085 32.95 57.28 33.025 57.843 33.245 58.109 34.424 57.62 35.673M41.34 37.626V35.523A0.75 0.75 0 0 1 42.84 35.523V37.456H43.992A0.75 0.75 0 0 1 43.992 38.956H42.669C41.936 38.956 41.339 38.359 41.339 37.626M37.755 32.803A1.46 1.46 0 1 1 34.834 32.803 1.46 1.46 0 0 1 37.754 32.803M51.247 32.803A1.46 1.46 0 1 1 48.327 32.803 1.46 1.46 0 0 1 51.246 32.803M46.712 42.246C46.712 43.456 44.815 43.889 43.04 43.889 41.266 43.889 39.37 43.457 39.37 42.246A0.75 0.75 0 0 1 40.833 42.017C41.084 42.166 41.874 42.39 43.04 42.39 44.207 42.389 44.996 42.166 45.247 42.017A0.75 0.75 0 0 1 46.712 42.246M57.5 78.415L57.496 78.384 53.516 63.05 53.417 62.66 53.408 62.637C53.375 62.503 53.17 62.358 52.895 62.358H33.186C32.913 62.358 32.706 62.503 32.672 62.637L32.665 62.66 32.565 63.05 29.063 76.535 28.531 76.228 28.525 76.225A5 5 0 0 0 27.973 75.963L31.51 62.336A1.5 1.5 0 0 1 32.165 61.46 1.8 1.8 0 0 1 32.665 61.237V50.146A4.74 4.74 0 0 0 27.683 51.542L11.558 69.917A4.75 4.75 0 0 0 12.433 76.96L21.683 83.336C21.984 83.543 22.303 83.698 22.63 83.827 22.992 84.237 23.42 84.59 23.898 84.862L26.994 86.624 27.58 86.957 27.915 87.15 28.088 87.247C28.112 87.26 28.14 87.266 28.165 87.278L28.115 88.332C28.113 88.385 28.137 88.438 28.187 88.49A0.62 0.62 0 0 0 28.635 88.658H57.445A0.62 0.62 0 0 0 57.896 88.49C57.945 88.438 57.968 88.386 57.965 88.333zM22.22 72.169L27.916 65.679V75.943A5 5 0 0 0 27.37 75.765C27.27 75.682 27.183 75.589 27.074 75.514zM33.48 81.1A0.26 0.26 0 0 1 33.133 81.198L29.74 79.268C29.547 79.155 29.316 79.166 29.11 79.25A0.86 0.86 0 0 0 28.683 79.607 0.75 0.75 0 0 0 28.956 80.63C28.958 80.629 28.959 80.632 28.962 80.634L33.025 82.947A0.256 0.256 0 0 1 32.966 83.414 0.26 0.26 0 0 1 32.772 83.39L28.8 81.13 28.71 81.078A0.6 0.6 0 0 0 28.46 81.012 1 1 0 0 0 28.121 81.038 0.7 0.7 0 0 0 27.915 81.15C27.895 81.164 27.87 81.17 27.85 81.186A0.9 0.9 0 0 0 27.65 81.424 0.74 0.74 0 0 0 27.796 82.328C27.834 82.365 27.869 82.404 27.916 82.432 27.92 82.436 27.923 82.442 27.93 82.445L28.002 82.486 28.382 82.702 31.321 84.377C31.402 84.422 31.43 84.493 31.442 84.53S31.461 84.645 31.417 84.724A0.26 0.26 0 0 1 31.07 84.821L28.354 83.275 27.915 83.025 27.767 82.942 27.64 82.87 27.3 82.675C27.263 82.655 27.22 82.645 27.18 82.633A0.92 0.92 0 0 0 26.48 82.722 0.75 0.75 0 0 0 26.107 83.372C26.107 83.525 26.163 83.663 26.247 83.785A0.7 0.7 0 0 0 26.485 84.02L27.1 84.37 27.685 84.704 27.915 84.835 28.271 85.038 29.084 85.5A0.26 0.26 0 0 1 29.179 85.848 0.26 0.26 0 0 1 28.829 85.944L25.49 84.042 24.639 83.56A3.53 3.53 0 0 1 23.11 81.793C22.711 80.787 22.766 79.693 23.257 78.863 23.849 77.863 24.973 77.13 26.219 77.13 26.667 77.129 27.13 77.23 27.59 77.44 27.678 77.481 27.766 77.52 27.854 77.57L27.915 77.604 28.134 77.73 28.674 78.04 28.945 78.199 33.385 80.754A0.256 0.256 0 0 1 33.48 81.101M89.19 20.98A0.65 0.65 0 0 0 88.359 21.373L86.152 27.54 87.937 21.784A0.65 0.65 0 1 0 86.695 21.399L84.666 27.941 86.289 21.757A0.65 0.65 0 0 0 85.031 21.427L83.315 27.965H83.301L84.641 21.728A0.65 0.65 0 0 0 84.14 20.956 0.657 0.657 0 0 0 83.37 21.456L81.971 27.965H81.945L82.99 21.698A0.65 0.65 0 0 0 81.707 21.485L80.626 27.965H80.588L81.34 21.67A0.65 0.65 0 0 0 80.05 21.514L79.278 27.965H79.234L79.687 21.638A0.65 0.65 0 0 0 79.084 20.943 0.66 0.66 0 0 0 78.39 21.545L77.93 27.965H77.88L78.031 21.607A0.65 0.65 0 0 0 77.398 20.942H77.382A0.65 0.65 0 0 0 76.732 21.576L76.582 27.966H76.529L76.376 21.575A0.66 0.66 0 0 0 75.711 20.942 0.65 0.65 0 0 0 75.077 21.607L75.23 27.965H75.18L74.72 21.545A0.657 0.657 0 0 0 74.026 20.943 0.65 0.65 0 0 0 73.423 21.638L73.876 27.965H73.83L73.061 21.515A0.65 0.65 0 0 0 71.77 21.668L72.523 27.965H72.484L71.402 21.485A0.656 0.656 0 0 0 70.652 20.95 0.65 0.65 0 0 0 70.119 21.699L71.165 27.965H71.138L69.74 21.455A0.656 0.656 0 0 0 68.968 20.955 0.65 0.65 0 0 0 68.469 21.729L69.809 27.965H69.793L68.078 21.427A0.651 0.651 0 0 0 66.82 21.757L68.44 27.928 66.414 21.4A0.65 0.65 0 0 0 65.172 21.784L66.962 27.555 64.75 21.373A0.65 0.65 0 1 0 63.526 21.81L65.84 28.278A0.75 0.75 0 0 0 65.704 28.862C66.33 32.012 69.648 34.43 73.971 35.13V63.264A1.8 1.8 0 0 0 73.1 64.128L71.434 67.72 67.726 67.791 58.312 52.329A4.7 4.7 0 0 0 57.385 51.257 3 3 0 0 0 55.767 50.319 4.7 4.7 0 0 0 53.415 50.135V61.237C53.597 61.287 53.765 61.364 53.915 61.462 54.235 61.67 54.476 61.97 54.572 62.336L55.105 64.39 55.53 66.03 58.165 76.185V70.358L61.03 75.062A4.75 4.75 0 0 0 65.087 77.342L65.177 77.34 73.539 77.183C73.68 77.211 73.826 77.217 73.971 77.227V88.508A0.75 0.75 0 0 0 75.47 88.508V69.36L75.968 68.292C75.96 68.364 75.947 68.435 75.947 68.51 75.947 68.932 76.093 69.317 76.33 69.63 76.093 69.943 75.947 70.328 75.947 70.75S76.093 71.56 76.33 71.872C76.093 72.184 75.947 72.57 75.947 72.992S76.093 73.8 76.33 74.112A1.85 1.85 0 0 0 75.947 75.233C75.947 75.414 75.98 75.586 76.029 75.752 76.107 76.02 76.242 76.262 76.423 76.465L76.453 76.502A1.85 1.85 0 0 0 77.638 77.078V88.508A0.75 0.75 0 0 0 79.138 88.508V77.096H80.193A1.865 1.865 0 0 0 82.056 75.233C82.056 74.811 81.909 74.425 81.67 74.113 81.91 73.8 82.056 73.413 82.056 72.991S81.909 72.184 81.67 71.872C81.91 71.558 82.056 71.172 82.056 70.75S81.909 69.943 81.67 69.63C81.91 69.317 82.056 68.932 82.056 68.51A1.865 1.865 0 0 0 80.193 66.647H79.138V35.13C83.462 34.43 86.779 32.012 87.406 28.862A0.74 0.74 0 0 0 87.269 28.277L89.583 21.81A0.65 0.65 0 0 0 89.19 20.98M75.693 65.334L73.97 69.029 73.85 69.285C73.824 69.348 73.817 69.414 73.806 69.479A0.74 0.74 0 0 0 73.971 70.097V75.727A2 2 0 0 1 72.21 73.747V69.996C72.211 69.776 72.255 69.57 72.321 69.372L72.382 69.24 72.532 68.915 74.463 64.76C74.503 64.673 74.6 64.61 74.722 64.576A0.8 0.8 0 0 1 75.27 64.631 1 1 0 0 1 75.47 64.763C75.682 64.941 75.765 65.18 75.693 65.333M75.905 63.27A2.4 2.4 0 0 0 75.47 63.12V35.305C75.828 35.328 76.189 35.342 76.555 35.342S77.28 35.328 77.638 35.305V66.665A1.85 1.85 0 0 0 76.465 67.226L76.808 66.491 77.052 65.967C77.508 64.989 76.993 63.78 75.905 63.27M80.193 75.596H77.808A0.35 0.35 0 0 1 77.639 75.547 0.4 0.4 0 0 1 77.56 75.495 0.36 0.36 0 0 1 77.447 75.233 0.36 0.36 0 0 1 77.637 74.92 0.35 0.35 0 0 1 77.81 74.87H80.193C80.283 74.87 80.364 74.907 80.428 74.962A0.358 0.358 0 0 1 80.193 75.596M80.193 73.354H77.808A0.35 0.35 0 0 1 77.639 73.306C77.526 73.244 77.447 73.129 77.447 72.992S77.526 72.739 77.637 72.678A0.35 0.35 0 0 1 77.81 72.628H80.192A0.363 0.363 0 1 1 80.193 73.355M80.193 71.114H77.808A0.35 0.35 0 0 1 77.639 71.063 0.35 0.35 0 0 1 77.447 70.752C77.447 70.615 77.526 70.498 77.637 70.436A0.35 0.35 0 0 1 77.81 70.388H80.192A0.363 0.363 0 1 1 80.193 71.114M79.997 68.146H80.193C80.393 68.147 80.556 68.31 80.556 68.51A0.36 0.36 0 0 1 80.428 68.78 0.36 0.36 0 0 1 80.193 68.872H77.808A0.35 0.35 0 0 1 77.639 68.823C77.526 68.762 77.447 68.647 77.447 68.51S77.526 68.257 77.637 68.196A0.35 0.35 0 0 1 77.81 68.147H79.998" fill="#50a060" data-fill-palette-color="accent"></path></svg></g></svg></g></svg></g><defs></defs></svg><rect width="395.52" height="104.58406985055355" fill="none" stroke="none" visibility="hidden"></rect></g></svg></g></svg>